<?xml version="1.0" encoding="utf-8"?>
<!-- Generator: Adobe Illustrator 16.0.0, SVG Export Plug-In . SVG Version: 6.00 Build 0)  -->
<!DOCTYPE svg PUBLIC "-//W3C//DTD SVG 1.1//EN" "http://www.w3.org/Graphics/SVG/1.1/DTD/svg11.dtd">
<svg version="1.1" id="Layer_1" xmlns="http://www.w3.org/2000/svg" xmlns:xlink="http://www.w3.org/1999/xlink" x="0px" y="0px"
	 width="1451.538px" height="778.933px" fill="#ffffff" viewBox="0 0 1451.538 778.933" enable-background="new 0 0 1451.538 778.933"
	 xml:space="preserve">
<g>
	<g>
		<path d="M151.977,460.3L151.977,460.3h50.92c43.744,0,78.128-13.449,103.144-40.382c25.004-26.914,37.525-63.031,37.525-108.368
			s-12.521-81.441-37.525-108.373c-25.016-26.905-59.4-40.391-103.144-40.391h-50.92V460.3z M202.896,75.304
			c75.024,0,136.643,21.881,184.876,65.623c48.228,43.76,72.355,100.524,72.355,170.299c0,69.786-24.127,126.646-72.355,170.619
			c-48.233,43.984-109.852,65.954-184.876,65.954H37.422V75.304H202.896z"/>
		<path d="M723.685,483.531c-46.666-45.543-69.955-103.324-69.955-173.338c0-69.97,23.289-127.751,69.955-173.305
			c46.692-45.56,103.751-68.323,171.169-68.323c52.227,0,98.696,13.892,139.325,41.737c40.635,27.831,69.002,66.424,85.07,115.764
			h-136.65c-17.881-34.54-46.453-51.818-85.725-51.818c-39.292,0-70.229,12.356-92.776,36.993
			c-22.584,24.684-33.853,57.675-33.853,98.952c0,41.29,11.269,74.297,33.853,98.954c22.547,24.701,53.484,37.029,92.776,37.029
			c39.271,0,67.844-17.245,85.725-51.827h136.65c-16.068,49.356-44.436,87.941-85.07,115.771
			c-40.629,27.823-87.098,41.723-139.325,41.723C827.436,551.843,770.377,529.064,723.685,483.531"/>
		<polygon points="1451.538,73.947 1451.538,161.469 1281.364,161.469 1281.364,263.093 1431.429,263.093 1431.429,350.584 
			1281.364,350.584 1281.364,460.3 1451.538,460.3 1451.538,547.799 1166.819,547.799 1166.819,73.947 		"/>
		<path d="M600.429,151.651c0-4.686-3.808-8.434-8.452-8.434h-72.743c-4.668,0-8.454,3.748-8.454,8.434l-38.917,313.609
			l85.141,88.355l82.302-88.355L600.429,151.651z"/>
		<path d="M559.864,0c-31.868,0-57.696,25.815-57.696,57.681c0,31.849,25.828,57.662,57.696,57.662
			c31.844,0,57.672-25.813,57.672-57.662C617.536,25.815,591.708,0,559.864,0"/>
	</g>
</g>
<g>
	<path d="M81.548,680.906h-57.72l-12.432,27.676H0l47.36-103.6h10.804l47.36,103.6H93.98L81.548,680.906z M77.552,672.026
		l-24.864-55.648l-24.864,55.648H77.552z"/>
	<path d="M250.934,702.662c-8.239-4.537-14.703-10.827-19.388-18.87c-4.688-8.04-7.03-17.043-7.03-27.01
		c0-9.965,2.343-18.968,7.03-27.01c4.685-8.041,11.174-14.331,19.462-18.87c8.288-4.537,17.561-6.809,27.824-6.809
		c7.696,0,14.8,1.284,21.312,3.849c6.512,2.566,12.036,6.315,16.576,11.248l-6.956,6.956c-8.091-8.189-18.303-12.284-30.636-12.284
		c-8.191,0-15.64,1.875-22.348,5.624c-6.711,3.751-11.965,8.88-15.762,15.392c-3.8,6.512-5.698,13.815-5.698,21.904
		c0,8.091,1.898,15.392,5.698,21.903c3.797,6.513,9.051,11.644,15.762,15.393c6.708,3.751,14.157,5.624,22.348,5.624
		c12.432,0,22.644-4.145,30.636-12.432l6.956,6.955c-4.54,4.936-10.089,8.709-16.65,11.322c-6.563,2.615-13.69,3.922-21.386,3.922
		C268.421,709.47,259.171,707.201,250.934,702.662z"/>
	<path d="M514.893,680.906h-57.72l-12.432,27.676h-11.396l47.36-103.6h10.804l47.36,103.6h-11.544L514.893,680.906z
		 M510.897,672.026l-24.864-55.648l-24.864,55.648H510.897z"/>
	<path d="M668.516,604.982h42.18c10.952,0,20.621,2.196,29.008,6.586c8.385,4.391,14.897,10.508,19.536,18.352
		c4.636,7.844,6.956,16.798,6.956,26.862c0,10.063-2.319,19.018-6.956,26.861c-4.639,7.845-11.151,13.963-19.536,18.353
		c-8.388,4.392-18.056,6.586-29.008,6.586h-42.18V604.982z M710.104,699.11c9.077,0,17.02-1.8,23.828-5.402
		c6.808-3.601,12.085-8.584,15.836-14.948c3.749-6.363,5.624-13.689,5.624-21.978s-1.875-15.614-5.624-21.979
		c-3.751-6.363-9.028-11.345-15.836-14.947c-6.808-3.601-14.751-5.402-23.828-5.402h-30.636v84.656H710.104z"/>
	<path d="M976.503,699.11v9.472h-73.26v-103.6h71.039v9.472h-60.088v36.852h53.576v9.324h-53.576v38.48H976.503z"/>
	<path d="M1222.329,604.982v103.6h-10.508v-82.88l-40.7,69.708h-5.18l-40.7-69.264v82.436h-10.508v-103.6h9.028l44.991,76.812
		l44.549-76.812H1222.329z"/>
	<path d="M1404.07,672.766v35.816h-10.804v-35.816l-41.439-67.783h11.691l35.521,58.164l35.52-58.164h10.952L1404.07,672.766z"/>
</g>
</svg>
